<?xml version="1.0" standalone="no"?>
<!DOCTYPE svg PUBLIC "-//W3C//DTD SVG 20010904//EN"
 "http://www.w3.org/TR/2001/REC-SVG-20010904/DTD/svg10.dtd">
<svg version="1.0" xmlns="http://www.w3.org/2000/svg"
 width="223.000000pt" height="223.000000pt" viewBox="0 0 223.000000 223.000000"
 preserveAspectRatio="xMidYMid meet">
<metadata>
Created by potrace 1.11, written by Peter Selinger 2001-2013
</metadata>
<g transform="translate(0.000000,223.000000) scale(0.100000,-0.100000)"
fill="#000000" stroke="none">
<path d="M1335 1929 c-33 -16 -82 -45 -109 -64 -28 -21 -84 -46 -135 -61 -47
-14 -97 -30 -110 -35 l-24 -10 27 -27 c14 -16 26 -35 26 -44 0 -9 12 -31 27
-48 26 -31 29 -32 84 -26 54 5 59 4 80 -22 19 -25 21 -34 15 -115 -4 -48 -9
-93 -12 -100 -7 -17 -288 -105 -361 -113 -67 -6 -86 -20 -81 -55 4 -28 91 -89
126 -89 14 0 89 20 168 45 78 25 147 45 152 45 8 0 13 -88 16 -267 4 -266 15
-417 36 -523 6 -30 19 -113 29 -185 l17 -130 11 55 c24 114 36 208 39 285 2
44 9 103 15 130 6 28 13 73 15 100 2 28 9 82 15 120 7 39 13 131 14 205 5 300
1 268 38 290 17 11 61 29 97 41 98 32 145 62 168 109 17 34 18 47 9 78 -20 69
-80 110 -113 77 -9 -8 -19 -15 -24 -15 -4 0 -6 -9 -3 -19 4 -14 -6 -25 -40
-45 -69 -41 -107 -49 -129 -29 -16 14 -18 26 -13 72 10 84 23 118 57 142 54
39 77 141 42 194 -18 27 -74 65 -95 65 -8 -1 -41 -14 -74 -31z m360 -370 c-4
-5 -13 -9 -22 -9 -13 0 -13 3 -3 15 13 15 35 11 25 -6z"/>
<path d="M490 1849 c0 -6 15 -37 34 -68 49 -81 50 -92 22 -152 -13 -30 -23
-56 -21 -58 2 -2 15 6 30 17 14 11 47 25 74 32 62 15 84 38 75 76 -10 38 -94
119 -151 144 -52 23 -63 24 -63 9z"/>
<path d="M711 1318 c-1 -10 -5 -18 -11 -18 -5 0 -10 -5 -10 -12 0 -8 6 -7 16
4 9 9 14 22 11 30 -4 9 -6 7 -6 -4z"/>
<path d="M408 1273 c-3 -22 3 -57 14 -87 11 -28 19 -71 18 -100 -1 -28 -1 -55
0 -61 1 -5 1 -31 0 -56 -1 -38 3 -51 25 -73 27 -27 124 -86 141 -86 5 0 18 15
28 34 14 26 16 44 10 78 -4 23 -6 55 -5 71 1 15 -5 37 -14 50 -13 20 -13 28 0
71 8 27 12 53 9 58 -4 6 -2 13 4 17 16 9 44 81 33 81 -5 0 -19 -16 -31 -35
-12 -19 -26 -35 -31 -35 -5 0 -9 -6 -9 -14 0 -8 -10 -22 -22 -30 -21 -15 -24
-14 -61 22 -21 20 -50 58 -64 85 -15 26 -29 47 -33 47 -5 0 -10 -17 -12 -37z"/>
</g>
</svg>
